<svg xmlns="http://www.w3.org/2000/svg" width="23.996" height="23.38" viewBox="0 0 23.996 23.38">
  <g id="COCO_Line_Home" data-name="COCO/Line/Home" transform="translate(1.061 0.75)">
    <path id="Vector" d="M19.8,8.166v5.977a7.566,7.566,0,0,1-5.805,7.376,13.282,13.282,0,0,1-6.109,0,7.566,7.566,0,0,1-5.805-7.376V8.166M21.875,10l-7.5-7.554C12.754.816,11.944,0,10.938,0S9.121.816,7.5,2.448L0,10M13.216,21.629l.142-.3a4.417,4.417,0,0,0,.352-2.712l-.024-.125a2.763,2.763,0,0,0-1.973-2.157,2.9,2.9,0,0,0-1.553,0,2.763,2.763,0,0,0-1.973,2.157l-.024.125a4.417,4.417,0,0,0,.352,2.712l.142.3" transform="translate(0 0)" fill="none" stroke="#fff" stroke-linecap="round" stroke-width="1.5"/>
  </g>
</svg>
