<svg xmlns="http://www.w3.org/2000/svg" width="20.984" height="23.435" viewBox="0 0 20.984 23.435">
  <g id="COCO_Duotone_Notification" data-name="COCO/Duotone/Notification" transform="translate(0.75 0.763)">
    <path id="Vector" d="M7.342.4A8.332,8.332,0,0,0,1.991,6.211l-.067.255a13.161,13.161,0,0,0-.251,5.466l.029.176q.024.143.054.283A3.026,3.026,0,0,0,0,15.165a3,3,0,0,0,2.331,2.96l.457.1a33.615,33.615,0,0,0,13.907,0l.457-.1a3,3,0,0,0,2.331-2.96,3.026,3.026,0,0,0-1.758-2.774q.034-.156.061-.316l.031-.187A13.2,13.2,0,0,0,17.592,6.5L17.5,6.151A8.131,8.131,0,0,0,12.3.413,7.734,7.734,0,0,0,7.342.4Z" transform="translate(0)" fill="none" stroke="#aed489" stroke-linecap="round" stroke-width="1.5"/>
    <path id="Vector-2" data-name="Vector" d="M5.408,14.99c-.062.438-.337.11-.213.681l.074.338a2.521,2.521,0,0,0,1.874,1.918l.2.048a3,3,0,0,0,1.4,0l.2-.048a2.521,2.521,0,0,0,1.874-1.918l.074-.338c.124-.57-.119-.118-.2-.681" transform="translate(1.702 3.864)" fill="none" stroke="#aed489" stroke-linecap="round" stroke-width="1.5"/>
  </g>
</svg>
