<svg xmlns="http://www.w3.org/2000/svg" width="23.45" height="23.094" viewBox="0 0 23.45 23.094">
  <g id="COCO_Line_Note" data-name="COCO/Line/Note" transform="translate(0.756 0.756)">
    <path id="Vector" d="M.43,7.135A9.082,9.082,0,0,1,7.252.423a16.536,16.536,0,0,1,7.433,0,9.082,9.082,0,0,1,6.822,6.712,15.759,15.759,0,0,1,0,7.313,9.082,9.082,0,0,1-6.822,6.712,16.536,16.536,0,0,1-7.433,0A9.082,9.082,0,0,1,.43,14.448,15.759,15.759,0,0,1,.43,7.135Z" fill="none" stroke="#fff" stroke-linecap="round" stroke-width="1.5"/>
    <path id="Vector-2" data-name="Vector" d="M11.081,18c0-2.884,0-4.326.914-5.222s2.385-.9,5.328-.9" transform="translate(3.938 2.938)" fill="none" stroke="#fff" stroke-linecap="round" stroke-width="1.5"/>
    <path id="Vector-3" data-name="Vector" d="M0,0H3M0,3H5" transform="translate(7.817 7.575)" fill="none" stroke="#aed489" stroke-linecap="round" stroke-width="1.5"/>
  </g>
</svg>
