<svg xmlns="http://www.w3.org/2000/svg" width="18.563" height="23.438" viewBox="0 0 18.563 23.438">
  <g id="COCO_Line_User" data-name="COCO/Line/User" transform="translate(0.75 0.75)">
    <path id="Vector" d="M0,17.23A5.929,5.929,0,0,1,4.88,11.32l.253-.042a20.881,20.881,0,0,1,6.8,0l.253.042a5.929,5.929,0,0,1,4.88,5.909,2.266,2.266,0,0,1-2.228,2.3H2.228A2.266,2.266,0,0,1,0,17.23Z" transform="translate(0 2.406)" fill="none" stroke="#aed489" stroke-width="1.5"/>
    <path id="Vector-2" data-name="Vector" d="M12.87,4.8A4.89,4.89,0,0,1,7.893,9.6,4.89,4.89,0,0,1,2.917,4.8,4.89,4.89,0,0,1,7.893,0,4.89,4.89,0,0,1,12.87,4.8Z" transform="translate(0.638)" fill="none" stroke="#aed489" stroke-width="1.5"/>
  </g>
</svg>
